<mxfile host="65bd71144e">
    <diagram id="5ULgP-g9RoujefRU-fZQ" name="Page-1">
        <mxGraphModel dx="911" dy="795" grid="1" gridSize="10" guides="1" tooltips="1" connect="1" arrows="1" fold="1" page="1" pageScale="1" pageWidth="850" pageHeight="1100" background="light-dark(#FFFFFF,#1A1A1A)" math="0" shadow="0" adaptiveColors="auto">
            <root>
                <mxCell id="0"/>
                <mxCell id="1" parent="0"/>
                <mxCell id="12" value="" style="rounded=1;whiteSpace=wrap;html=1;fillColor=#b0e3e6;strokeColor=#0e8088;" vertex="1" parent="1">
                    <mxGeometry x="470" y="100" width="237.5" height="300" as="geometry"/>
                </mxCell>
                <mxCell id="2" value="&lt;font face=&quot;Lucida Console&quot; style=&quot;font-size: 34px;&quot;&gt;&lt;i style=&quot;&quot;&gt;Staszic360&lt;/i&gt;&lt;/font&gt;" style="rounded=1;whiteSpace=wrap;html=1;fillColor=#fad7ac;strokeColor=#b46504;strokeWidth=3;" vertex="1" parent="1">
                    <mxGeometry x="210" y="360" width="240" height="130" as="geometry"/>
                </mxCell>
                <mxCell id="4" value="I LO. w Chrzanowie" style="rounded=1;whiteSpace=wrap;html=1;fillColor=#b1ddf0;strokeColor=#10739e;strokeWidth=4;fontFamily=Lucida Console;" vertex="1" parent="1">
                    <mxGeometry x="10" y="210" width="120" height="60" as="geometry"/>
                </mxCell>
                <mxCell id="5" value="" style="shape=flexArrow;endArrow=classic;html=1;entryX=0;entryY=0.5;entryDx=0;entryDy=0;exitX=0.5;exitY=1;exitDx=0;exitDy=0;" edge="1" parent="1" source="4" target="2">
                    <mxGeometry width="50" height="50" relative="1" as="geometry">
                        <mxPoint x="330" y="430" as="sourcePoint"/>
                        <mxPoint x="380" y="380" as="targetPoint"/>
                        <Array as="points">
                            <mxPoint x="70" y="425"/>
                        </Array>
                    </mxGeometry>
                </mxCell>
                <mxCell id="6" value="Miejsce robienia zdjęć" style="text;html=1;align=center;verticalAlign=middle;whiteSpace=wrap;rounded=1;fillColor=#fad9d5;strokeColor=#ae4132;" vertex="1" parent="1">
                    <mxGeometry x="80" y="310" width="110" height="70" as="geometry"/>
                </mxCell>
                <mxCell id="7" value="&lt;font style=&quot;font-size: 24px;&quot; face=&quot;Tahoma&quot;&gt;Cloudflare&lt;/font&gt;" style="ellipse;shape=cloud;whiteSpace=wrap;html=1;fillColor=#fad7ac;strokeColor=#b46504;strokeWidth=3;" vertex="1" parent="1">
                    <mxGeometry x="210" y="30" width="220" height="160" as="geometry"/>
                </mxCell>
                <mxCell id="8" value="Darmowy plan hostingowy&amp;nbsp;" style="text;html=1;align=center;verticalAlign=middle;whiteSpace=wrap;rounded=1;fillColor=#fad9d5;strokeColor=#ae4132;glass=0;shadow=0;fontFamily=Helvetica;" vertex="1" parent="1">
                    <mxGeometry x="210" y="220" width="110" height="80" as="geometry"/>
                </mxCell>
                <mxCell id="10" value="" style="shape=flexArrow;endArrow=classic;html=1;entryX=0.55;entryY=0.95;entryDx=0;entryDy=0;entryPerimeter=0;exitX=0.5;exitY=0;exitDx=0;exitDy=0;fillColor=#FFFFFF;" edge="1" parent="1" source="2" target="7">
                    <mxGeometry width="50" height="50" relative="1" as="geometry">
                        <mxPoint x="310" y="300" as="sourcePoint"/>
                        <mxPoint x="360" y="250" as="targetPoint"/>
                    </mxGeometry>
                </mxCell>
                <mxCell id="11" value="&lt;font face=&quot;Lucida Console&quot;&gt;GitHub Codespace&lt;/font&gt;" style="rounded=1;whiteSpace=wrap;html=1;fillColor=#e1d5e7;strokeColor=#9673a6;strokeWidth=4;" vertex="1" parent="1">
                    <mxGeometry x="525.32" y="170" width="126.87" height="60" as="geometry"/>
                </mxCell>
                <mxCell id="13" value="&lt;font face=&quot;Lucida Console&quot;&gt;Development enviroments&lt;/font&gt;" style="text;html=1;align=center;verticalAlign=middle;whiteSpace=wrap;rounded=0;fontSize=18;" vertex="1" parent="1">
                    <mxGeometry x="475" y="80" width="227.5" height="100" as="geometry"/>
                </mxCell>
                <mxCell id="14" value="&lt;font face=&quot;Lucida Console&quot;&gt;Windows PCs&lt;/font&gt;" style="rounded=1;whiteSpace=wrap;html=1;fillColor=#e1d5e7;strokeColor=#9673a6;strokeWidth=4;" vertex="1" parent="1">
                    <mxGeometry x="525.32" y="260" width="126.87" height="60" as="geometry"/>
                </mxCell>
                <mxCell id="15" value="" style="shape=flexArrow;endArrow=classic;html=1;entryX=0.75;entryY=0;entryDx=0;entryDy=0;exitX=0;exitY=0.5;exitDx=0;exitDy=0;" edge="1" parent="1" source="12" target="2">
                    <mxGeometry width="50" height="50" relative="1" as="geometry">
                        <mxPoint x="390" y="290" as="sourcePoint"/>
                        <mxPoint x="440" y="240" as="targetPoint"/>
                        <Array as="points">
                            <mxPoint x="390" y="250"/>
                        </Array>
                    </mxGeometry>
                </mxCell>
            </root>
        </mxGraphModel>
    </diagram>
</mxfile>